3DGaitModel2392_states
version=1
nRows=4
nColumns=251
inDegrees=yes

# SIMM Motion File Header:
name 3DGaitModel2392_states
datacolumns 251
datarows 4
otherdata 1
range 0.06500000 0.06700000
endheader
time	pelvis_tilt	pelvis_list	pelvis_rotation	pelvis_tx	pelvis_ty	pelvis_tz	hip_flexion_r	hip_adduction_r	hip_rotation_r	knee_angle_r	knee_adduction_r	knee_rotation_r	knee_anterior_posterior_r	knee_inferior_superior_r	knee_medial_lateral_r	ankle_angle_r	subtalar_angle_r	mtp_angle_r	hip_flexion_l	hip_adduction_l	hip_rotation_l	knee_angle_l	knee_adduction_l	knee_rotation_l	knee_anterior_posterior_l	knee_inferior_superior_l	knee_medial_lateral_l	ankle_angle_l	subtalar_angle_l	mtp_angle_l	lumbar_extension	lumbar_bending	lumbar_rotation	pelvis_tilt_u	pelvis_list_u	pelvis_rotation_u	pelvis_tx_u	pelvis_ty_u	pelvis_tz_u	hip_flexion_r_u	hip_adduction_r_u	hip_rotation_r_u	knee_angle_r_u	knee_adduction_r_u	knee_rotation_r_u	knee_anterior_posterior_r_u	knee_inferior_superior_r_u	knee_medial_lateral_r_u	ankle_angle_r_u	subtalar_angle_r_u	mtp_angle_r_u	hip_flexion_l_u	hip_adduction_l_u	hip_rotation_l_u	knee_angle_l_u	knee_adduction_l_u	knee_rotation_l_u	knee_anterior_posterior_l_u	knee_inferior_superior_l_u	knee_medial_lateral_l_u	ankle_angle_l_u	subtalar_angle_l_u	mtp_angle_l_u	lumbar_extension_u	lumbar_bending_u	lumbar_rotation_u	glut_med1_r.activation	glut_med1_r.fiber_length	glut_med2_r.activation	glut_med2_r.fiber_length	glut_med3_r.activation	glut_med3_r.fiber_length	glut_min1_r.activation	glut_min1_r.fiber_length	glut_min2_r.activation	glut_min2_r.fiber_length	glut_min3_r.activation	glut_min3_r.fiber_length	semimem_r.activation	semimem_r.fiber_length	semiten_r.activation	semiten_r.fiber_length	bifemlh_r.activation	bifemlh_r.fiber_length	bifemsh_r.activation	bifemsh_r.fiber_length	sar_r.activation	sar_r.fiber_length	add_long_r.activation	add_long_r.fiber_length	add_brev_r.activation	add_brev_r.fiber_length	add_mag1_r.activation	add_mag1_r.fiber_length	add_mag2_r.activation	add_mag2_r.fiber_length	add_mag3_r.activation	add_mag3_r.fiber_length	tfl_r.activation	tfl_r.fiber_length	pect_r.activation	pect_r.fiber_length	grac_r.activation	grac_r.fiber_length	glut_max1_r.activation	glut_max1_r.fiber_length	glut_max2_r.activation	glut_max2_r.fiber_length	glut_max3_r.activation	glut_max3_r.fiber_length	iliacus_r.activation	iliacus_r.fiber_length	psoas_r.activation	psoas_r.fiber_length	quad_fem_r.activation	quad_fem_r.fiber_length	gem_r.activation	gem_r.fiber_length	peri_r.activation	peri_r.fiber_length	rect_fem_r.activation	rect_fem_r.fiber_length	vas_med_r.activation	vas_med_r.fiber_length	vas_int_r.activation	vas_int_r.fiber_length	vas_lat_r.activation	vas_lat_r.fiber_length	med_gas_r.activation	med_gas_r.fiber_length	lat_gas_r.activation	lat_gas_r.fiber_length	soleus_r.activation	soleus_r.fiber_length	tib_post_r.activation	tib_post_r.fiber_length	flex_dig_r.activation	flex_dig_r.fiber_length	flex_hal_r.activation	flex_hal_r.fiber_length	tib_ant_r.activation	tib_ant_r.fiber_length	per_brev_r.activation	per_brev_r.fiber_length	per_long_r.activation	per_long_r.fiber_length	per_tert_r.activation	per_tert_r.fiber_length	ext_dig_r.activation	ext_dig_r.fiber_length	ext_hal_r.activation	ext_hal_r.fiber_length	glut_med1_l.activation	glut_med1_l.fiber_length	glut_med2_l.activation	glut_med2_l.fiber_length	glut_med3_l.activation	glut_med3_l.fiber_length	glut_min1_l.activation	glut_min1_l.fiber_length	glut_min2_l.activation	glut_min2_l.fiber_length	glut_min3_l.activation	glut_min3_l.fiber_length	semimem_l.activation	semimem_l.fiber_length	semiten_l.activation	semiten_l.fiber_length	bifemlh_l.activation	bifemlh_l.fiber_length	bifemsh_l.activation	bifemsh_l.fiber_length	sar_l.activation	sar_l.fiber_length	add_long_l.activation	add_long_l.fiber_length	add_brev_l.activation	add_brev_l.fiber_length	add_mag1_l.activation	add_mag1_l.fiber_length	add_mag2_l.activation	add_mag2_l.fiber_length	add_mag3_l.activation	add_mag3_l.fiber_length	tfl_l.activation	tfl_l.fiber_length	pect_l.activation	pect_l.fiber_length	grac_l.activation	grac_l.fiber_length	glut_max1_l.activation	glut_max1_l.fiber_length	glut_max2_l.activation	glut_max2_l.fiber_length	glut_max3_l.activation	glut_max3_l.fiber_length	iliacus_l.activation	iliacus_l.fiber_length	psoas_l.activation	psoas_l.fiber_length	quad_fem_l.activation	quad_fem_l.fiber_length	gem_l.activation	gem_l.fiber_length	peri_l.activation	peri_l.fiber_length	rect_fem_l.activation	rect_fem_l.fiber_length	vas_med_l.activation	vas_med_l.fiber_length	vas_int_l.activation	vas_int_l.fiber_length	vas_lat_l.activation	vas_lat_l.fiber_length	med_gas_l.activation	med_gas_l.fiber_length	lat_gas_l.activation	lat_gas_l.fiber_length	soleus_l.activation	soleus_l.fiber_length	tib_post_l.activation	tib_post_l.fiber_length	flex_dig_l.activation	flex_dig_l.fiber_length	flex_hal_l.activation	flex_hal_l.fiber_length	tib_ant_l.activation	tib_ant_l.fiber_length	per_brev_l.activation	per_brev_l.fiber_length	per_long_l.activation	per_long_l.fiber_length	per_tert_l.activation	per_tert_l.fiber_length	ext_dig_l.activation	ext_dig_l.fiber_length	ext_hal_l.activation	ext_hal_l.fiber_length	ercspn_r.activation	ercspn_r.fiber_length	ercspn_l.activation	ercspn_l.fiber_length	intobl_r.activation	intobl_r.fiber_length	intobl_l.activation	intobl_l.fiber_length	extobl_r.activation	extobl_r.fiber_length	extobl_l.activation	extobl_l.fiber_length
      0.06500000	      0.00000000	     -0.00000000	     -0.00000000	     -0.00196235	      0.00000000	      0.00035078	      3.05209912	      1.29399241	      0.11233692	     -8.79856435	     -6.91057011	      0.95587765	      0.00360336	     -0.35182037	     -0.00020298	    -14.26061287	      5.74590141	    105.89330997	      0.92066371	     -0.21138934	      2.48717919	     -3.62428703	      9.93786442	      3.90995862	      0.00790492	     -0.39389173	      0.00552516	     -7.94433722	      2.54589555	     63.92732610	     -0.00000000	     -0.00000000	     -0.00000000	      0.00000000	      0.00000000	     -0.00000000	     -0.03869596	      0.00000000	      0.00782233	     44.83392722	     59.38183179	      0.07254577	   -353.72910849	   -186.76772326	     94.71236338	      1.16238971	     -0.18878326	      1.03775688	    506.88381338	   -253.69646252	   2786.85802656	     15.94744500	     18.61868380	      8.86978136	    -22.69336546	    186.42385381	    -11.53143337	      0.11196777	      0.08201875	     -0.26236783	   -186.41099872	    109.41932470	   1341.30218353	     -0.00000000	      0.00000000	      0.00000000	      0.02624919	      0.04933452	      0.02624919	      0.07997867	      0.02624919	      0.06197918	      0.02624919	      0.06857582	      0.02624919	      0.05759263	      0.02624919	      0.03624353	      0.98168541	      0.05093157	      0.98168541	      0.15432692	      0.98168541	      0.04267143	      0.98168541	      0.12673633	      0.98168541	      0.41866470	      0.02624919	      0.10335571	      0.02624919	      0.11323395	      0.02624919	      0.07795274	      0.02624919	      0.07819976	      0.02624919	      0.09093851	      0.02624919	      0.08887510	      0.02624919	      0.08198328	      0.98168541	      0.26159742	      0.02624919	      0.07824022	      0.02624919	      0.08495489	      0.02624919	      0.09279358	      0.02624919	      0.10490531	      0.02624919	      0.09911697	      0.02624919	      0.04979525	      0.02624919	      0.02489783	      0.02624919	      0.02397648	      0.02624919	      0.08394525	      0.02624919	      0.07915511	      0.02624919	      0.07795274	      0.02624919	      0.07592185	      0.98168541	      0.04362392	      0.98168541	      0.04619847	      0.02624919	      0.04610823	      0.02624919	      0.02981666	      0.02624919	      0.03226304	      0.02624919	      0.04043877	      0.02624919	      0.08966482	      0.02624919	      0.05051614	      0.02624919	      0.04950258	      0.02624919	      0.08843240	      0.02624919	      0.09823849	      0.02624919	      0.10280868	      0.02624919	      0.04933452	      0.02624919	      0.07831366	      0.02624919	      0.06140168	      0.02624919	      0.06655777	      0.02624919	      0.05601303	      0.02624919	      0.03534484	      0.02624919	      0.07289521	      0.02624919	      0.20599850	      0.02624919	      0.08735469	      0.02624919	      0.16431632	      0.02624919	      0.46888147	      0.02624919	      0.10607780	      0.02624919	      0.11514284	      0.02624919	      0.07795274	      0.02624919	      0.07819976	      0.02624919	      0.09007392	      0.02624919	      0.10363662	      0.02624919	      0.08198328	      0.02624919	      0.31288552	      0.02624919	      0.07685559	      0.02624919	      0.08356842	      0.02624919	      0.09231246	      0.02624919	      0.10616857	      0.02624919	      0.10026679	      0.02624919	      0.04979525	      0.02624919	      0.02642618	      0.02624919	      0.02397648	      0.02624919	      0.10037526	      0.02624919	      0.07915511	      0.02624919	      0.07795274	      0.02624919	      0.07592185	      0.02624919	      0.05531548	      0.02624919	      0.05897603	      0.02624919	      0.04610823	      0.02624919	      0.03196418	      0.02624919	      0.03340514	      0.02624919	      0.04153419	      0.02624919	      0.08454849	      0.02624919	      0.04990154	      0.02624919	      0.05017819	      0.02624919	      0.08387126	      0.02624919	      0.09464342	      0.02624919	      0.10058191	      0.02624919	      0.11951932	      0.02624919	      0.11951932	      0.02624919	      0.09843749	      0.02624919	      0.09843749	      0.02624919	      0.13282501	      0.02624919	      0.13282501
      0.06600000	      0.00000000	     -0.00000000	     -0.00000000	     -0.00200143	      0.00000000	      0.00035824	      3.09983226	      1.34998074	      0.11237006	     -9.15428339	     -7.10635810	      1.04634458	      0.00473252	     -0.35202528	      0.00076769	    -13.74905974	      5.51771375	    108.67873182	      0.93665248	     -0.19274365	      2.49471577	     -3.64701691	     10.12586541	      3.89899394	      0.00801733	     -0.39380951	      0.00526386	     -8.12820574	      2.66491133	     65.25740777	     -0.00000000	     -0.00000000	     -0.00000000	      0.00000000	      0.00000000	     -0.00000000	     -0.03954958	      0.00000000	      0.00701766	     51.16418592	     52.07863005	      0.08311090	   -357.08662500	   -205.90015039	     85.41341906	      1.08630535	     -0.21858093	      0.89302912	    514.23374450	   -199.57327901	   2785.09098090	     16.05199524	     18.68587244	      6.20224245	    -22.78636791	    189.46205863	    -10.40484118	      0.11273880	      0.08244117	     -0.26029389	   -181.37732065	    128.28334788	   1319.23219478	     -0.00000000	      0.00000000	      0.00000000	      0.02603162	      0.04919028	      0.02603162	      0.08004242	      0.02603162	      0.06203353	      0.02603162	      0.06851521	      0.02603162	      0.05770974	      0.02603162	      0.03629128	      0.98259044	      0.05014228	      0.98259044	      0.15419189	      0.98259044	      0.04237452	      0.98259044	      0.12653847	      0.98259044	      0.41867788	      0.02603162	      0.10326264	      0.02603162	      0.11315957	      0.02603162	      0.07771818	      0.02603162	      0.07787354	      0.02603162	      0.09096090	      0.02603162	      0.08861897	      0.02603162	      0.08171367	      0.98259044	      0.26145721	      0.02603162	      0.07830662	      0.02603162	      0.08501420	      0.02603162	      0.09281276	      0.02603162	      0.10487126	      0.02603162	      0.09907877	      0.02603162	      0.04964966	      0.02603162	      0.02489765	      0.02603162	      0.02390639	      0.02603162	      0.08363790	      0.02603162	      0.07891516	      0.02603162	      0.07771818	      0.02603162	      0.07569538	      0.98259044	      0.04303196	      0.98259044	      0.04556704	      0.02603162	      0.04597343	      0.02603162	      0.02980454	      0.02603162	      0.03226528	      0.02603162	      0.04049135	      0.02603162	      0.08946715	      0.02603162	      0.05050847	      0.02603162	      0.04950536	      0.02603162	      0.08812160	      0.02603162	      0.09796350	      0.02603162	      0.10250942	      0.02603162	      0.04919028	      0.02603162	      0.07833323	      0.02603162	      0.06142490	      0.02603162	      0.06656884	      0.02603162	      0.05602772	      0.02603162	      0.03533631	      0.02603162	      0.07267953	      0.02603162	      0.20592690	      0.02603162	      0.08730130	      0.02603162	      0.16422931	      0.02603162	      0.46881970	      0.02603162	      0.10604650	      0.02603162	      0.11511899	      0.02603162	      0.07771818	      0.02603162	      0.07787354	      0.02603162	      0.09008067	      0.02603162	      0.10352717	      0.02603162	      0.08171367	      0.02603162	      0.31277927	      0.02603162	      0.07686167	      0.02603162	      0.08359713	      0.02603162	      0.09232938	      0.02603162	      0.10615742	      0.02603162	      0.10025848	      0.02603162	      0.04964966	      0.02603162	      0.02643109	      0.02603162	      0.02390639	      0.02603162	      0.10030869	      0.02603162	      0.07891516	      0.02603162	      0.07771818	      0.02603162	      0.07569538	      0.02603162	      0.05515371	      0.02603162	      0.05880348	      0.02603162	      0.04597343	      0.02603162	      0.03195076	      0.02603162	      0.03341367	      0.02603162	      0.04153703	      0.02603162	      0.08463350	      0.02603162	      0.04988163	      0.02603162	      0.05014399	      0.02603162	      0.08399734	      0.02603162	      0.09459772	      0.02603162	      0.10050427	      0.02603162	      0.11952036	      0.02603162	      0.11952036	      0.02603162	      0.09844117	      0.02603162	      0.09844117	      0.02603162	      0.13282856	      0.02603162	      0.13282856
      0.06666667	      0.00000000	     -0.00000000	     -0.00000000	     -0.00202806	      0.00000000	      0.00036267	      3.13585049	      1.38263172	      0.11245436	     -9.39247507	     -7.24881259	      1.10046557	      0.00543066	     -0.35217479	      0.00132152	    -13.40669559	      5.39939478	    110.53607301	      0.94739738	     -0.18026127	      2.49825731	     -3.66224485	     10.25274078	      3.89229919	      0.00809254	     -0.39375444	      0.00509075	     -8.24807290	      2.75430858	     66.13237017	     -0.00000000	     -0.00000000	     -0.00000000	      0.00000000	      0.00000000	     -0.00000000	     -0.04036965	      0.00000000	      0.00626035	     57.09976377	     45.70780159	      0.17514802	   -357.20477041	   -221.81853446	     76.66126494	      1.00419902	     -0.22826081	      0.76496645	    511.76907855	   -154.44627460	   2787.33320602	     16.19070725	     18.76530590	      4.42267234	    -22.92958916	    190.97121522	     -9.71613413	      0.11288446	      0.08273541	     -0.25914090	   -178.16374480	    139.36735110	   1305.89754972	     -0.00000000	      0.00000000	      0.00000000	      0.02588826	      0.04909417	      0.02588826	      0.08008320	      0.02588826	      0.06206883	      0.02588826	      0.06851501	      0.02588826	      0.05770843	      0.02588826	      0.03632190	      0.98316849	      0.04961580	      0.98316849	      0.15411411	      0.98316849	      0.04221908	      0.98316849	      0.12642345	      0.98316849	      0.41871694	      0.02588826	      0.10320077	      0.02588826	      0.11311380	      0.02588826	      0.07756189	      0.02588826	      0.07765617	      0.02588826	      0.09097564	      0.02588826	      0.08844831	      0.02588826	      0.08153402	      0.98316849	      0.26138402	      0.02588826	      0.07835179	      0.02588826	      0.08505540	      0.02588826	      0.09282651	      0.02588826	      0.10484841	      0.02588826	      0.09905378	      0.02588826	      0.04955265	      0.02588826	      0.02489707	      0.02588826	      0.02385968	      0.02588826	      0.08343310	      0.02588826	      0.07875528	      0.02588826	      0.07756189	      0.02588826	      0.07554448	      0.98316849	      0.04263710	      0.98316849	      0.04514585	      0.02588826	      0.04588361	      0.02588826	      0.02979925	      0.02588826	      0.03226814	      0.02588826	      0.04060024	      0.02588826	      0.08931770	      0.02588826	      0.05050239	      0.02588826	      0.04950727	      0.02588826	      0.08792297	      0.02588826	      0.09778026	      0.02588826	      0.10231001	      0.02588826	      0.04909417	      0.02588826	      0.07834718	      0.02588826	      0.06143990	      0.02588826	      0.06657672	      0.02588826	      0.05603768	      0.02588826	      0.03533266	      0.02588826	      0.07253581	      0.02588826	      0.20587953	      0.02588826	      0.08726521	      0.02588826	      0.16417078	      0.02588826	      0.46877965	      0.02588826	      0.10602586	      0.02588826	      0.11510315	      0.02588826	      0.07756189	      0.02588826	      0.07765617	      0.02588826	      0.09008526	      0.02588826	      0.10345446	      0.02588826	      0.08153402	      0.02588826	      0.31270870	      0.02588826	      0.07686760	      0.02588826	      0.08361568	      0.02588826	      0.09234009	      0.02588826	      0.10615015	      0.02588826	      0.10025303	      0.02588826	      0.04955265	      0.02588826	      0.02643384	      0.02588826	      0.02385968	      0.02588826	      0.10026384	      0.02588826	      0.07875528	      0.02588826	      0.07756189	      0.02588826	      0.07554448	      0.02588826	      0.05504593	      0.02588826	      0.05868851	      0.02588826	      0.04588361	      0.02588826	      0.03194079	      0.02588826	      0.03341911	      0.02588826	      0.04153912	      0.02588826	      0.08469792	      0.02588826	      0.04987116	      0.02588826	      0.05012343	      0.02588826	      0.08421825	      0.02588826	      0.09456915	      0.02588826	      0.10045249	      0.02588826	      0.11952105	      0.02588826	      0.11952105	      0.02588826	      0.09844361	      0.02588826	      0.09844361	      0.02588826	      0.13283091	      0.02588826	      0.13283091
      0.06700000	      0.00000000	     -0.00000000	     -0.00000000	     -0.00204160	      0.00000000	      0.00036469	      3.15544507	      1.39728684	      0.11251872	     -9.51145925	     -7.32418565	      1.12519960	      0.00575730	     -0.35225109	      0.00156477	    -13.23668357	      5.35195155	    111.46549634	      0.95280837	     -0.17399842	      2.49958337	     -3.66989565	     10.31653841	      3.88912299	      0.00813016	     -0.39372682	      0.00500448	     -8.30722958	      2.80172057	     66.56661142	     -0.00000000	     -0.00000000	     -0.00000000	      0.00000000	      0.00000000	     -0.00000000	     -0.04084149	      0.00000000	      0.00582805	     60.52309048	     42.17568191	      0.21584159	   -356.62874263	   -230.51999948	     71.66514404	      0.95457062	     -0.22917121	      0.69355116	    508.03968087	   -129.94454883	   2789.31503550	     16.27736990	     18.81301107	      3.53371417	    -22.99827112	    191.68728625	     -9.36757594	      0.11281452	      0.08291952	     -0.25856061	   -176.70456250	    144.75641293	   1299.63815090	     -0.00000000	      0.00000000	      0.00000000	      0.02581709	      0.04904613	      0.02581709	      0.08010298	      0.02581709	      0.06208616	      0.02581709	      0.06851842	      0.02581709	      0.05770989	      0.02581709	      0.03633639	      0.98345019	      0.04935247	      0.98345019	      0.15407899	      0.98345019	      0.04215215	      0.98345019	      0.12637080	      0.98345019	      0.41874620	      0.02581709	      0.10317011	      0.02581709	      0.11309234	      0.02581709	      0.07748377	      0.02581709	      0.07754752	      0.02581709	      0.09098316	      0.02581709	      0.08836300	      0.02581709	      0.08144423	      0.98345019	      0.26135343	      0.02581709	      0.07837470	      0.02581709	      0.08507680	      0.02581709	      0.09283415	      0.02581709	      0.10483679	      0.02581709	      0.09904132	      0.02581709	      0.04950416	      0.02581709	      0.02489666	      0.02581709	      0.02383633	      0.02581709	      0.08333074	      0.02581709	      0.07867536	      0.02581709	      0.07748377	      0.02581709	      0.07546905	      0.98345019	      0.04243960	      0.98345019	      0.04493519	      0.02581709	      0.04583871	      0.02581709	      0.02979728	      0.02581709	      0.03227006	      0.02581709	      0.04066933	      0.02581709	      0.08923773	      0.02581709	      0.05049928	      0.02581709	      0.04950830	      0.02581709	      0.08782748	      0.02581709	      0.09768866	      0.02581709	      0.10221034	      0.02581709	      0.04904613	      0.02581709	      0.07835433	      0.02581709	      0.06144724	      0.02581709	      0.06658083	      0.02581709	      0.05604272	      0.02581709	      0.03533135	      0.02581709	      0.07246398	      0.02581709	      0.20585595	      0.02581709	      0.08724700	      0.02581709	      0.16414135	      0.02581709	      0.46875993	      0.02581709	      0.10601559	      0.02581709	      0.11509524	      0.02581709	      0.07748377	      0.02581709	      0.07754752	      0.02581709	      0.09008759	      0.02581709	      0.10341818	      0.02581709	      0.08144423	      0.02581709	      0.31267348	      0.02581709	      0.07687112	      0.02581709	      0.08362478	      0.02581709	      0.09234528	      0.02581709	      0.10614655	      0.02581709	      0.10025034	      0.02581709	      0.04950416	      0.02581709	      0.02643507	      0.02581709	      0.02383633	      0.02581709	      0.10024129	      0.02581709	      0.07867536	      0.02581709	      0.07748377	      0.02581709	      0.07546905	      0.02581709	      0.05499205	      0.02581709	      0.05863104	      0.02581709	      0.04583871	      0.02581709	      0.03193548	      0.02581709	      0.03342173	      0.02581709	      0.04154021	      0.02581709	      0.08473063	      0.02581709	      0.04986673	      0.02581709	      0.05011381	      0.02581709	      0.08428085	      0.02581709	      0.09455542	      0.02581709	      0.10042659	      0.02581709	      0.11952139	      0.02581709	      0.11952139	      0.02581709	      0.09844483	      0.02581709	      0.09844483	      0.02581709	      0.13283207	      0.02581709	      0.13283207
